<?xml version="1.0" encoding="UTF-8" standalone="no"?>
<svg
   id="Layer_1"
   data-name="Layer 1"
   viewBox="0 0 122.88 97.05"
   version="1.1"
   sodipodi:docname="icon.svg"
   inkscape:version="1.2.2 (732a01da63, 2022-12-09, custom)"
   xmlns:inkscape="http://www.inkscape.org/namespaces/inkscape"
   xmlns:sodipodi="http://sodipodi.sourceforge.net/DTD/sodipodi-0.dtd"
   xmlns="http://www.w3.org/2000/svg"
   xmlns:svg="http://www.w3.org/2000/svg"
   xmlns:rdf="http://www.w3.org/1999/02/22-rdf-syntax-ns#"
   xmlns:cc="http://creativecommons.org/ns#"
   xmlns:dc="http://purl.org/dc/elements/1.1/">
  <defs
     id="defs155" />
  <sodipodi:namedview
     id="namedview153"
     pagecolor="#ffffff"
     bordercolor="#000000"
     borderopacity="0.25"
     inkscape:showpageshadow="2"
     inkscape:pageopacity="0.0"
     inkscape:pagecheckerboard="0"
     inkscape:deskcolor="#d1d1d1"
     showgrid="false"
     inkscape:zoom="1.9490063"
     inkscape:cx="163.41661"
     inkscape:cy="-6.1569836"
     inkscape:window-width="1920"
     inkscape:window-height="1013"
     inkscape:window-x="1366"
     inkscape:window-y="0"
     inkscape:window-maximized="1"
     inkscape:current-layer="Layer_1" />
  <title
     id="title148">planet-saturn-space</title>
  <g
     id="g790"
     transform="matrix(0.86290243,0,0,0.85154353,-135.5779,-3.4718957)">
    <ellipse
       style="fill:#ffffff;fill-rule:evenodd;stroke:#1a1a1a;stroke-width:1.09161"
       id="path469"
       cx="230.1474"
       cy="62.222267"
       rx="48.802586"
       ry="48.487053" />
    <rect
       style="fill:#ffffff;fill-rule:evenodd;stroke:#ffffff"
       id="rect579"
       width="1.9217265"
       height="24.71677"
       x="228.9518"
       y="16.322662"
       rx="0.96086323"
       ry="5.0271869" />
    <rect
       style="fill:#ffffff;fill-rule:evenodd;stroke:#ffffff"
       id="rect579-3"
       width="1.9217265"
       height="24.71677"
       x="230.23886"
       y="80.867577"
       rx="0.96086323"
       ry="5.0271869" />
    <rect
       style="fill:#ffffff;fill-rule:evenodd;stroke:#ffffff"
       id="rect579-6"
       width="1.9217265"
       height="24.71677"
       x="212.59419"
       y="-91.731964"
       rx="0.96086323"
       ry="5.0271869"
       transform="rotate(42.455696)" />
    <rect
       style="fill:#ffffff;fill-rule:evenodd;stroke:#ffffff"
       id="rect579-6-7"
       width="1.9217265"
       height="24.71677"
       x="213.59665"
       y="-154.90898"
       rx="0.96086323"
       ry="5.0271869"
       transform="rotate(42.455696)" />
    <rect
       style="fill:#ffffff;fill-rule:evenodd;stroke:#ffffff"
       id="rect579-6-5"
       width="1.9217265"
       height="24.71677"
       x="-87.681473"
       y="-203.55376"
       rx="0.96086323"
       ry="5.0271869"
       transform="rotate(125.61328)"
       inkscape:transform-center-x="-23.504785"
       inkscape:transform-center-y="14.280792" />
    <rect
       style="fill:#ffffff;fill-rule:evenodd;stroke:#ffffff"
       id="rect579-6-5-3"
       width="1.9217265"
       height="24.71677"
       x="-82.171783"
       y="-267.7348"
       rx="0.96086323"
       ry="5.0271869"
       transform="rotate(125.61328)"
       inkscape:transform-center-x="-23.504785"
       inkscape:transform-center-y="14.280792" />
    <rect
       style="fill:#ffffff;fill-rule:evenodd;stroke:#ffffff"
       id="rect579-6-5-5"
       width="1.9217265"
       height="24.71677"
       x="58.249184"
       y="-275.45822"
       rx="0.96086323"
       ry="5.0271869"
       transform="rotate(90.395722)"
       inkscape:transform-center-x="-27.43815"
       inkscape:transform-center-y="-1.8878494" />
    <rect
       style="fill:#ffffff;fill-rule:evenodd;stroke:#ffffff"
       id="rect579-6-5-5-6"
       width="1.9217265"
       height="24.71677"
       x="61.25111"
       y="-211.158"
       rx="0.96086323"
       ry="5.0271869"
       transform="rotate(90.395722)"
       inkscape:transform-center-x="-27.43815"
       inkscape:transform-center-y="-1.8878494" />
    <ellipse
       style="fill:#ffffff;fill-rule:evenodd;stroke:#ffffff;stroke-width:1.68899"
       id="path525"
       cx="230.75859"
       cy="61.984303"
       rx="30.296852"
       ry="30.215216" />
  </g>
  <path
     d="m 42.831641,13.590805 a 41.885284,41.333923 0 0 1 48.227616,4.40248 l 0.232984,-0.06812 c 6.040316,-1.515748 11.347169,-2.154405 15.437319,-1.839334 4.46121,0.340617 7.67984,1.830818 9.23306,4.572789 2.80444,4.930437 -0.9233,12.568782 -9.19854,20.93094 -0.50048,0.50241 -1.02685,1.013336 -1.56185,1.532778 A 41.876655,41.325408 0 0 1 36.799953,80.973445 c -0.733468,0.18734 -1.458306,0.357648 -2.165886,0.519441 -11.528376,2.614239 -20.062481,1.762696 -22.866914,-3.167741 v 0 c -1.561853,-2.767517 -1.139031,-6.292907 0.949193,-10.278131 1.872498,-3.576483 5.177414,-7.663892 9.55233,-11.921609 l 0.181209,-0.170309 A 41.902542,41.350954 0 0 1 42.831641,13.590805 Z M 101.26739,46.656241 A 168.4213,166.20427 0 0 1 73.145403,65.875578 h -0.05177 A 168.82686,166.60449 0 0 1 41.873819,79.576914 37.613917,37.118783 0 0 0 101.25876,46.690302 Z M 31.726086,68.796372 c 2.925239,-0.366163 9.759427,-3.014464 17.922484,-6.693132 5.367253,-2.409868 11.217731,-5.347693 16.921516,-8.515435 5.703785,-3.167742 11.217732,-6.480246 16.110389,-9.741658 7.196606,-4.845283 12.745071,-9.222217 14.31555,-11.836455 Q 96.676751,31.413611 96.322961,30.809015 A 37.59678,37.101871 0 0 0 31.208345,67.919283 l 0.517741,0.851543 z"
     id="path150"
     style="fill:#1a1a1a;stroke:#1a1a1a;stroke-width:0.857204" />
  <metadata
     id="metadata808">
    <rdf:RDF>
      <cc:Work
         rdf:about="">
        <dc:title>planet-saturn-space</dc:title>
      </cc:Work>
    </rdf:RDF>
  </metadata>
</svg>
